<svg xmlns="http://www.w3.org/2000/svg" viewBox="0 0 24 24">
  <path d="M10.3 2.5a1.7 1.7 0 1 1 3.4 0v.9h3.05a2.25 2.25 0 0 1 2.25 2.25v3.05h.9a1.7 1.7 0 1 1 0 3.4H19v3.05a2.25 2.25 0 0 1-2.25 2.25h-3.05v.9a1.7 1.7 0 1 1-3.4 0v-.9H7.25A2.25 2.25 0 0 1 5 15.15V12.1h-.9a1.7 1.7 0 1 1 0-3.4H5V5.65A2.25 2.25 0 0 1 7.25 3.4h3.05v-.9Z"/>
  <circle cx="12" cy="10.95" r="3.25" fill="#fff"/>
  <path d="M12 8.75c-.34.84-.94 1.46-1.45 2-.52.54-.95.99-.95 1.73a2.4 2.4 0 1 0 4.8 0c0-.74-.43-1.19-.95-1.73-.51-.54-1.11-1.16-1.45-2Z"/>
</svg>
